<svg width="60" height="60" viewBox="0 0 60 60" fill="none" xmlns="http://www.w3.org/2000/svg">
<path d="M17.8125 16.4062H42.1875C42.4453 16.4062 42.6562 16.1953 42.6562 15.9375C42.6562 13.5938 42.1406 11.4434 41.1387 9.60352C40.1309 7.75781 38.6484 6.27539 36.8027 5.26758C34.9629 4.26563 32.8125 3.75 30.4688 3.75H29.5312C27.1875 3.75 25.0371 4.26563 23.1973 5.26758C21.3516 6.27539 19.8691 7.75781 18.8613 9.60352C17.8594 11.4434 17.3438 13.5938 17.3438 15.9375C17.3438 16.1953 17.5547 16.4062 17.8125 16.4062Z" fill="#336791"/>
<path d="M55.0781 30H46.4062V24.1406C50.9062 24.1406 54.5508 20.4961 54.5508 15.9961C54.5508 15.7383 54.3398 15.5273 54.082 15.5273H50.5664C50.3086 15.5273 50.0977 15.7383 50.0977 15.9961C50.0977 18.0352 48.4453 19.6875 46.4062 19.6875H13.5938C11.5547 19.6875 9.90234 18.0352 9.90234 15.9961C9.90234 15.7383 9.69141 15.5273 9.43359 15.5273H5.91797C5.66016 15.5273 5.44922 15.7383 5.44922 15.9961C5.44922 20.4961 9.09375 24.1406 13.5938 24.1406V30H4.92188C4.66406 30 4.45312 30.2109 4.45312 30.4688V33.75C4.45312 34.0078 4.66406 34.2188 4.92188 34.2188H13.5938V39.8438C13.5938 40.2246 13.6055 40.6055 13.6348 40.9746C9.61523 42.6914 6.79688 46.6816 6.79688 51.3281C6.79688 51.5859 7.00781 51.7969 7.26562 51.7969H10.5469C10.8047 51.7969 11.0156 51.5859 11.0156 51.3281C11.0156 48.7383 12.416 46.4707 14.5078 45.252C14.8594 46.2598 15.3047 47.2207 15.8379 48.123C17.2617 50.5547 19.2949 52.5879 21.7266 54.0117C23.4199 55.002 25.3008 55.6992 27.3105 56.0332C27.5684 56.0332 27.7793 55.8223 27.7793 55.5645V28.3594C27.7793 28.1016 27.9902 27.8906 28.248 27.8906H31.7637C32.0215 27.8906 32.2324 28.1016 32.2324 28.3594V55.5586C32.2324 55.8164 32.4434 56.0273 32.7012 56.0273C34.7109 55.6934 36.5918 54.9961 38.2852 54.0059C40.7168 52.582 42.75 50.5488 44.1738 48.1172C44.707 47.209 45.1523 46.248 45.5039 45.2461C47.584 46.4707 48.9844 48.7383 48.9844 51.3281C48.9844 51.5859 49.1953 51.7969 49.4531 51.7969H52.7344C52.9922 51.7969 53.2031 51.5859 53.2031 51.3281C53.2031 46.6816 50.3848 42.6914 46.3652 40.9746C46.3887 40.5996 46.4062 40.2246 46.4062 39.8438V34.2188H55.0781C55.3359 34.2188 55.5469 34.0078 55.5469 33.75V30.4688C55.5469 30.2109 55.3359 30 55.0781 30Z" fill="#336791"/>
</svg>
