<svg version="1.0" xmlns="http://www.w3.org/2000/svg" width="60" height="60" viewBox="0 0 512.000000 512.000000" preserveAspectRatio="xMidYMid meet">

    <g transform="translate(0.000000,512.000000) scale(0.100000,-0.100000)" fill="#002D62" stroke="none">
    <path d="M2321 5110 c-207 -20 -420 -69 -629 -142 -127 -45 -152 -67 -152 -130 0 -28 7 -46 24 -63 42 -42 64 -41 208 8 303 104 570 145 868 134 434 -17 827 -139 1195 -371 66 -42 125 -76 133 -76 26 0 81 29 91 48 17 32 13 87 -9 115 -11 14 -55 47 -97 75 -318 203 -665 333 -1038 388 -123 18 -467 26 -594 14z"/>
    <path d="M730 4659 c-110 -22 -216 -103 -265 -203 -55 -113 -55 -233 0 -342 l24 -47 -63 -96 c-219 -331 -351 -685 -407 -1091 -18 -125 -18 -515 0 -640 80 -582 327 -1083 732 -1489 616 -616 1475 -871 2339 -695 178 37 428 120 462 155 54 53 28 146 -46 165 -17 4 -68 -9 -158 -40 -155 -53 -298 -88 -458 -113 -161 -25 -500 -24 -665 1 -421 64 -802 230 -1140 496 -182 144 -404 395 -535 605 -159 256 -277 579 -326 895 -25 160 -25 519 0 678 40 256 112 487 221 707 53 107 166 297 194 328 4 4 29 0 55 -9 71 -24 194 -16 268 18 73 34 146 107 184 183 26 54 29 70 29 160 0 87 -3 107 -27 157 -52 112 -159 195 -282 217 -67 12 -73 12 -136 0z m172 -225 c68 -44 97 -140 64 -217 -16 -38 -76 -94 -112 -103 -14 -4 -47 -4 -74 -2 -113 11 -186 127 -146 232 43 113 168 155 268 90z"/>
    <path d="M4249 4351 c-68 -68 -8 -184 85 -167 48 9 81 48 81 98 0 33 -6 45 -33 69 -44 40 -93 40 -133 0z"/>
    <path d="M2427 4280 c-126 -20 -282 -81 -385 -152 -68 -46 -178 -154 -228 -224 -58 -81 -119 -211 -145 -309 -16 -61 -23 -121 -27 -255 l-5 -175 -53 -34 c-70 -45 -127 -123 -148 -203 -15 -57 -17 -135 -14 -783 l3 -720 26 -55 c32 -69 76 -119 137 -159 98 -63 84 -62 998 -59 l829 3 57 23 c80 32 150 99 190 180 l33 67 3 724 c3 785 3 782 -52 870 -30 46 -90 104 -131 127 l-33 17 -5 176 c-5 203 -22 284 -87 420 -52 109 -111 190 -196 272 -169 161 -367 245 -599 254 -60 2 -136 0 -168 -5z m314 -215 c170 -45 319 -152 415 -297 89 -133 124 -263 124 -458 l0 -120 -105 0 -105 0 0 108 c0 195 -36 303 -136 411 -110 119 -213 164 -374 164 -83 0 -118 -5 -164 -22 -166 -60 -300 -211 -335 -379 -6 -29 -11 -105 -11 -167 l0 -115 -105 0 -105 0 0 119 c0 190 33 318 114 446 101 157 275 280 446 314 30 6 64 13 75 15 37 9 209 -4 266 -19z m-44 -420 c60 -30 117 -89 146 -154 17 -37 22 -71 25 -173 l4 -128 -311 0 -311 0 0 108 c0 127 16 192 63 254 92 120 249 158 384 93z m723 -677 c18 -13 43 -36 54 -51 21 -28 21 -36 24 -731 l2 -702 -23 -44 c-16 -30 -37 -51 -67 -67 l-43 -23 -807 0 -807 0 -44 23 c-27 15 -53 38 -66 63 l-23 39 3 707 c2 699 2 707 23 735 11 15 36 38 54 51 l33 22 827 0 827 0 33 -22z"/>
    <path d="M2455 2766 c-106 -34 -187 -102 -238 -201 -56 -110 -48 -264 18 -366 22 -34 24 -47 27 -225 3 -175 5 -192 27 -238 112 -228 430 -227 543 3 21 42 23 62 26 235 3 178 5 191 27 225 109 168 51 415 -124 526 -82 51 -217 69 -306 41z m178 -200 c18 -7 47 -29 64 -49 58 -66 57 -155 -1 -240 l-36 -52 0 -197 0 -198 -29 -32 c-24 -27 -36 -33 -71 -33 -35 0 -47 6 -71 33 l-29 32 0 198 0 197 -36 52 c-58 84 -59 174 -1 240 17 20 45 42 62 49 39 17 107 17 148 0z"/>
    <path d="M4544 4012 c-31 -25 -47 -60 -40 -92 3 -15 26 -60 51 -100 160 -247 281 -567 336 -891 30 -179 33 -532 5 -709 -52 -330 -169 -648 -335 -910 -91 -142 -80 -133 -135 -114 -74 25 -197 16 -272 -21 -75 -37 -142 -104 -180 -180 -26 -54 -29 -70 -29 -160 0 -87 3 -107 27 -157 72 -154 246 -248 406 -218 166 30 286 153 314 322 13 75 0 151 -37 225 l-24 47 48 71 c214 311 355 677 418 1085 24 161 24 539 0 700 -44 282 -119 527 -232 758 -82 168 -176 324 -208 347 -29 20 -87 19 -113 -3z m-120 -3035 c92 -71 97 -200 10 -276 -88 -78 -222 -53 -275 52 -42 81 -10 189 71 237 52 31 144 24 194 -13z"/>
    </g>
    </svg>