<svg width="40" height="40" viewBox="0 0 16 16" xmlns="http://www.w3.org/2000/svg">
    <path fill="hsl(216, 70%, 73%)" fill-rule="evenodd" d="M14,14 C14.5523,14 15,14.4477 15,15 C15,15.5523 14.5523,16 14,16 L10,16 C9.44772,16 9,15.5523 9,15 C9,14.4477 9.44772,14 10,14 L14,14 Z M9.17157,1 C9.70201,1 10.2107,1.21071 10.5858,1.58579 L13.4142,4.41421 C13.7893,4.78929 14,5.29799 14,5.82843 L14,6 L10,6 C9.44771,6 9,5.55228 9,5 L9,3 L4,3 L4,13 L6,13 C6.55228,13 7,13.4477 7,14 C7,14.5523 6.55228,15 6,15 L3,15 C2.44772,15 2,14.5523 2,14 L2,2 C2,1.44772 2.44772,1 3,1 L9.17157,1 Z M12,7 C12.5523,7 13,7.44772 13,8 L13,9 L14,9 C14.5523,9 15,9.44771 15,10 C15,10.5523 14.5523,11 14,11 L13,11 L13,12 C13,12.5523 12.5523,13 12,13 C11.4477,13 11,12.5523 11,12 L11,11 L10,11 C9.44772,11 9,10.5523 9,10 C9,9.44771 9.44772,9 10,9 L11,9 L11,8 C11,7.44772 11.4477,7 12,7 Z"/>
  </svg>