<svg width="25" height="25" viewBox="0 0 32 32" version="1.1"
    xmlns="http://www.w3.org/2000/svg"
    xmlns:xlink="http://www.w3.org/1999/xlink"
    xmlns:sketch="http://www.bohemiancoding.com/sketch/ns">
    <g id="Page-1" stroke="#ffffff" stroke-width="1" fill="none" fill-rule="evenodd" sketch:type="MSPage">
        <g id="icon-92-inbox-download" sketch:type="MSArtboardGroup" fill="#ffffff">
            <path d="M16,16 L12.75,12.75 L12,13.5 L16.5,18 L21,13.5 L20.25,12.75 L17,16 L17,5 L16,5 L16,16 L16,16 Z M18,11 L23.4000244,11 L27.7750244,18 L21,18 L21,20.0020869 C21,21.1017394 20.1057373,22 19.0026083,22 L13.9973917,22 C12.8958578,22 12,21.1055038 12,20.0020869 L12,18 L5.22497559,18 L5.22497559,18 L9.59997559,11 L15,11 L15,10 L9,10 L4,18 L4,18.5 L4,27 L29,27 L29,18.5 L29,18 L24,10 L18,10 L18,11 L18,11 L18,11 Z M22,19 L28,19 L28,26 L5,26 L5,19 L11,19 L11,20.5 C11,21.8807119 12.1152735,23 13.4960703,23 L19.5039297,23 C20.8824713,23 22,21.8903379 22,20.5 L22,19 L22,19 L22,19 Z" id="inbox-download" sketch:type="MSShapeGroup"></path>
        </g>
    </g>
</svg>