<svg width="80" height="80" viewBox="0 0 80 80" fill="none" xmlns="http://www.w3.org/2000/svg">
<path fill-rule="evenodd" clip-rule="evenodd" d="M10 0C4.47715 0 0 4.47715 0 10V70C0 75.5229 4.47715 80 10 80H70C75.5229 80 80 75.5229 80 70V10C80 4.47715 75.5229 0 70 0H10ZM54.7129 39.909C52.7617 37.9578 50.165 36.8845 47.4023 36.8845C46.5918 36.8845 45.7812 36.9822 44.9883 37.2517L36.9043 29.1599C36.8945 28.3787 36.9238 27.5877 37.0645 26.7747C37.9249 21.2884 42.1329 16.6995 47.5333 15.4075C49.8692 14.8484 52.131 14.886 54.213 15.3865C55.2754 15.6414 55.6306 16.9908 54.8579 17.7635L48.1294 24.492V31.7875H55.5122L62.2407 25.059C63.0132 24.2869 64.3625 24.6414 64.6177 25.7039C65.1182 27.7859 65.1558 30.0476 64.5967 32.3836C63.584 36.617 60.5332 40.0896 56.626 41.822L54.7129 39.909ZM44.1611 40.8494C46.8779 39.5144 50.2383 39.9451 52.5 42.2068L63.9363 53.4603C65.3525 54.889 65.3525 57.1918 63.9365 58.6078L58.7852 63.7592C57.3691 65.1754 55.0654 65.1754 53.6377 63.7593L42.2119 52.3238C39.9501 50.0621 39.5186 46.7017 40.8535 43.9849L30.4336 33.5748L24.375 33.574L15 21.1619L21.25 14.9998L33.6621 24.3738V30.4295L44.1611 40.8494ZM31.4746 39.2088L37.2559 44.9802C36.7383 47.1677 37.0215 49.4041 37.8828 51.4373L26.252 63.0681C24.9648 64.356 23.2803 64.9998 21.5918 64.9998C19.9033 64.9998 18.2188 64.3552 16.9336 63.0711C14.3584 60.4959 14.3584 56.325 16.9336 53.7498L31.4746 39.2088ZM18.9062 58.7498C18.9062 60.0437 19.9561 61.0935 21.25 61.0935C22.5439 61.0935 23.5938 60.0486 23.5938 58.7498C23.5938 57.451 22.5439 56.406 21.25 56.406C19.9561 56.406 18.9062 57.4549 18.9062 58.7498Z" fill="#005499"/>
</svg>
