<svg width="60" height="60" viewBox="0 0 60 60" fill="none" xmlns="http://www.w3.org/2000/svg">
<path d="M22.5 11.25C22.5005 9.93911 22.1575 8.65097 21.505 7.51399C20.8525 6.37701 19.9135 5.4309 18.7814 4.76997C17.6493 4.10904 16.3638 3.75637 15.0529 3.74712C13.7421 3.73787 12.4517 4.07236 11.3104 4.71725C10.1691 5.36214 9.21677 6.2949 8.54833 7.42256C7.87988 8.55021 7.51867 9.83338 7.50071 11.1441C7.48274 12.4549 7.80864 13.7475 8.44593 14.893C9.08322 16.0386 10.0096 16.9971 11.1328 17.673V42.259C9.703 43.0845 8.58553 44.3587 7.95372 45.884C7.32191 47.4094 7.21106 49.1006 7.63837 50.6953C8.06568 52.2901 9.00727 53.6992 10.3171 54.7043C11.6269 55.7094 13.2318 56.2542 14.8828 56.2542C16.5338 56.2542 18.1387 55.7094 19.4485 54.7043C20.7584 53.6992 21.6999 52.2901 22.1273 50.6953C22.5546 49.1006 22.4437 47.4094 21.8119 45.884C21.1801 44.3587 20.0626 43.0845 18.6328 42.259V17.8125C19.8042 17.1631 20.7806 16.2121 21.4606 15.0582C22.1406 13.9042 22.4994 12.5894 22.5 11.25ZM15 7.49999C15.7417 7.49999 16.4667 7.71993 17.0834 8.13198C17.7001 8.54404 18.1807 9.12971 18.4646 9.81493C18.7484 10.5002 18.8226 11.2542 18.6779 11.9816C18.5333 12.709 18.1761 13.3772 17.6517 13.9016C17.1272 14.4261 16.459 14.7832 15.7316 14.9279C15.0042 15.0726 14.2502 14.9984 13.5649 14.7145C12.8797 14.4307 12.294 13.9501 11.882 13.3334C11.4699 12.7167 11.25 11.9917 11.25 11.25C11.25 10.2554 11.6451 9.3016 12.3484 8.59834C13.0516 7.89508 14.0054 7.49999 15 7.49999ZM14.8828 52.5C14.1411 52.5 13.4161 52.2801 12.7994 51.868C12.1827 51.456 11.7021 50.8703 11.4183 50.1851C11.1344 49.4998 11.0602 48.7458 11.2049 48.0184C11.3496 47.291 11.7067 46.6228 12.2312 46.0983C12.7556 45.5739 13.4238 45.2167 14.1512 45.072C14.8787 44.9274 15.6327 45.0016 16.3179 45.2854C17.0031 45.5693 17.5888 46.0499 18.0008 46.6666C18.4129 47.2833 18.6328 48.0083 18.6328 48.75C18.6328 49.7446 18.2377 50.6984 17.5345 51.4016C16.8312 52.1049 15.8774 52.5 14.8828 52.5ZM48.75 42.259V18.2812C48.7469 15.4228 47.61 12.6824 45.5888 10.6612C43.5676 8.63997 40.8272 7.5031 37.9688 7.49999H33.8672V1.16367L23.5711 11.25L33.8672 21.3363V15H37.9688C38.839 15 39.6736 15.3457 40.2889 15.961C40.9043 16.5764 41.25 17.411 41.25 18.2812V42.259C39.8202 43.0845 38.7027 44.3587 38.0709 45.884C37.4391 47.4094 37.3282 49.1006 37.7556 50.6953C38.1829 52.2901 39.1245 53.6992 40.4343 54.7043C41.7441 55.7094 43.349 56.2542 45 56.2542C46.651 56.2542 48.2559 55.7094 49.5657 54.7043C50.8755 53.6992 51.8171 52.2901 52.2444 50.6953C52.6718 49.1006 52.5609 47.4094 51.9291 45.884C51.2973 44.3587 50.1798 43.0845 48.75 42.259ZM45 52.5C44.2583 52.5 43.5333 52.2801 42.9166 51.868C42.2999 51.456 41.8193 50.8703 41.5355 50.1851C41.2516 49.4998 41.1774 48.7458 41.3221 48.0184C41.4668 47.291 41.8239 46.6228 42.3484 46.0983C42.8728 45.5739 43.541 45.2167 44.2684 45.072C44.9958 44.9274 45.7498 45.0016 46.4351 45.2854C47.1203 45.5693 47.706 46.0499 48.118 46.6666C48.5301 47.2833 48.75 48.0083 48.75 48.75C48.75 49.7446 48.3549 50.6984 47.6517 51.4016C46.9484 52.1049 45.9946 52.5 45 52.5Z" fill="#336791"/>
</svg>
