<svg width="46" height="46" viewBox="0 0 46 46" fill="none" xmlns="http://www.w3.org/2000/svg">
<path d="M15.3859 36.9288C15.3859 37.1184 15.1726 37.2702 14.9036 37.2702C14.5976 37.2986 14.3843 37.1469 14.3843 36.9288C14.3843 36.7391 14.5976 36.5874 14.8665 36.5874C15.1448 36.5589 15.3859 36.7107 15.3859 36.9288ZM12.5016 36.502C12.4367 36.6917 12.6222 36.9098 12.9004 36.9667C13.1415 37.0615 13.4198 36.9667 13.4754 36.777C13.531 36.5874 13.3548 36.3692 13.0766 36.2839C12.8355 36.2175 12.5665 36.3123 12.5016 36.502ZM16.6008 36.3408C16.3319 36.4072 16.1464 36.5874 16.1742 36.8055C16.202 36.9952 16.4431 37.1184 16.7214 37.0521C16.9903 36.9857 17.1758 36.8055 17.148 36.6158C17.1202 36.4356 16.8698 36.3123 16.6008 36.3408ZM22.7032 0C9.83992 0 0 9.98613 0 23.1398C0 33.657 6.47339 42.6568 15.7198 45.8243C16.9069 46.0424 17.3242 45.2932 17.3242 44.6768C17.3242 44.0888 17.2964 40.8455 17.2964 38.8539C17.2964 38.8539 10.8044 40.2765 9.44113 36.0278C9.44113 36.0278 8.38387 33.2681 6.8629 32.5569C6.8629 32.5569 4.73911 31.068 7.01129 31.0964C7.01129 31.0964 9.32056 31.2861 10.5911 33.5432C12.6222 37.2038 16.0258 36.1511 17.352 35.5252C17.5653 34.0079 18.1681 32.9552 18.8359 32.3293C13.6516 31.7413 8.42097 30.9731 8.42097 21.85C8.42097 19.242 9.12581 17.9333 10.6097 16.2642C10.3685 15.6478 9.58024 13.1062 10.8508 9.82491C12.7891 9.20848 17.25 12.3855 17.25 12.3855C19.1048 11.8544 21.0988 11.5794 23.0742 11.5794C25.0496 11.5794 27.0435 11.8544 28.8984 12.3855C28.8984 12.3855 33.3593 9.199 35.2976 9.82491C36.5681 13.1157 35.7798 15.6478 35.5387 16.2642C37.0226 17.9428 37.9315 19.2515 37.9315 21.85C37.9315 31.0016 32.469 31.7318 27.2847 32.3293C28.1379 33.0785 28.8613 34.501 28.8613 36.7296C28.8613 39.9256 28.8335 43.8802 28.8335 44.6578C28.8335 45.2743 29.2601 46.0235 30.4379 45.8053C39.7121 42.6568 46 33.657 46 23.1398C46 9.98613 35.5665 0 22.7032 0ZM9.01452 32.7086C8.89395 32.8034 8.92177 33.0216 9.07944 33.2018C9.22782 33.3535 9.44113 33.4199 9.56169 33.2966C9.68226 33.2018 9.65444 32.9836 9.49677 32.8034C9.34839 32.6517 9.13508 32.5853 9.01452 32.7086ZM8.0129 31.9404C7.94798 32.0637 8.04073 32.2155 8.22621 32.3103C8.3746 32.4051 8.56008 32.3767 8.625 32.2439C8.68992 32.1206 8.59718 31.9689 8.41169 31.8741C8.22621 31.8172 8.07782 31.8456 8.0129 31.9404ZM11.0177 35.3166C10.8694 35.4399 10.925 35.7244 11.1383 35.9046C11.3516 36.1227 11.6206 36.1511 11.7411 35.9994C11.8617 35.8761 11.806 35.5916 11.6206 35.4114C11.4165 35.1933 11.1383 35.1648 11.0177 35.3166ZM9.96048 33.9225C9.8121 34.0173 9.8121 34.2639 9.96048 34.482C10.1089 34.7001 10.3593 34.795 10.4798 34.7001C10.6282 34.5769 10.6282 34.3303 10.4798 34.1122C10.35 33.8941 10.1089 33.7992 9.96048 33.9225Z" fill="white"/>
</svg>
