<svg width="80" height="80" viewBox="0 0 80 80" fill="none" xmlns="http://www.w3.org/2000/svg">
<path fill-rule="evenodd" clip-rule="evenodd" d="M10 0C4.47715 0 0 4.47715 0 10V70C0 75.5229 4.47715 80 10 80H70C75.5229 80 80 75.5229 80 70V10C80 4.47715 75.5229 0 70 0H10ZM21.0417 26.4583H26.4583C27.8949 26.4583 29.2727 27.029 30.2885 28.0448C31.3043 29.0607 31.875 30.4384 31.875 31.875V53.5417H26.4583V42.7083H21.0417V53.5417H15.625V31.875C15.625 30.4384 16.1957 29.0607 17.2115 28.0448C18.2273 27.029 19.6051 26.4583 21.0417 26.4583ZM21.0417 37.2917H26.4583V31.875H21.0417V37.2917ZM34.5833 26.4583H45.4167C46.8533 26.4583 48.231 27.029 49.2468 28.0448C50.2626 29.0607 50.8333 30.4384 50.8333 31.875V37.2917C50.8333 38.7283 50.2626 40.106 49.2468 41.1218C48.231 42.1376 46.8533 42.7083 45.4167 42.7083H40V53.5417H34.5833V26.4583ZM40 37.2917H45.4167V31.875H40V37.2917ZM61.6667 48.125V31.875H64.375V26.4583H53.5417V31.875H56.25V48.125H53.5417V53.5417H64.375V48.125H61.6667Z" fill="#005499"/>
</svg>
