<svg width="80" height="80" viewBox="0 0 80 80" fill="none" xmlns="http://www.w3.org/2000/svg">
<path fill-rule="evenodd" clip-rule="evenodd" d="M10 0C4.47715 0 0 4.47715 0 10V70C0 75.5229 4.47715 80 10 80H70C75.5229 80 80 75.5229 80 70V10C80 4.47715 75.5229 0 70 0H10ZM48.5854 57.6312C37.9417 62.0729 24.5083 57.2521 32.8771 54.9229C32.8771 54.9229 30.7917 56.25 34.3396 56.6562C38.0938 57.1752 41.9109 57.0101 45.6063 56.1687C46.5558 56.7403 47.5525 57.2295 48.5854 57.6312ZM32.7958 51.0771C37.6403 51.6475 42.5459 51.4095 47.3125 50.3729C47.9571 50.9725 48.724 51.4252 49.5604 51.7C36.6958 55.4917 22.3688 52.025 31.5771 48.9917C31.5771 48.9917 29.2479 50.6979 32.7958 51.0771ZM42.5188 38.8896C33.6354 28.6521 52.2417 24.0208 52.2417 24.0208C40.914 30.579 42.2391 32.4233 45.0569 36.345C45.1832 36.5207 45.3125 36.7007 45.4438 36.8854C48.5042 41.1917 41.8417 44.6312 41.8417 44.6312C42.2754 44.3078 42.6386 43.8993 42.9092 43.4307C43.1798 42.9622 43.352 42.4434 43.4154 41.9061C43.4787 41.3687 43.4319 40.8241 43.2778 40.3055C43.1236 39.7868 42.8653 39.3051 42.5188 38.8896ZM56.6021 59.3375C56.6021 59.3375 58.1187 60.5833 54.8958 61.5583C48.7479 63.4271 29.3562 63.9958 23.9667 61.5583C22.0167 60.7187 25.6458 59.5542 26.675 59.3104C27.2851 59.153 27.9138 59.0801 28.5437 59.0937C26.3771 57.5771 14.5958 62.0729 22.5583 63.3729C44.3604 67.0833 62.2083 61.8562 56.6021 59.3375ZM49.1271 46.1208C49.9235 45.6172 50.7564 45.1736 51.6187 44.7938C51.6187 44.7938 47.5292 45.525 43.4937 45.8771C39.1543 46.2959 34.7868 46.3412 30.4396 46.0125C23.9937 45.1729 33.8792 42.7083 33.8792 42.7083C30.9043 42.6853 27.968 43.3822 25.3208 44.7396C19.7417 47.5292 39.1062 48.7479 49.1271 46.1208ZM51.5917 52.7292C51.5325 52.8211 51.4594 52.9034 51.375 52.9729C64.9167 49.3979 59.9875 40.3792 53.4875 42.6542C53.1289 42.7861 52.8178 43.0218 52.5937 43.3312C52.5937 43.3312 52.9729 43.1958 53.7583 43.0062C57.0625 42.3292 61.6667 47.4208 51.5917 52.7292ZM40 42.7083C39.5458 41.6833 38.8439 40.686 38.1328 39.6756C35.7063 36.2278 33.1719 32.6267 40 27.2437C51.0771 18.55 45.4167 12.9167 45.4167 12.9167C46.9282 18.873 42.8442 22.0674 38.8685 25.1771C36.8606 26.7476 34.8803 28.2965 33.6625 30.1687C31.1437 33.9875 34.9354 38.0771 40 42.7083ZM27.1896 65.6208C35.4112 66.7704 43.7612 66.6425 51.9437 65.2417C59.3375 63.8333 60.0417 62.1 60.0417 62.1C59.6625 66.7312 44.6583 67.6792 34.8812 67.0563C28.4354 66.65 27.1896 65.6208 27.1896 65.6208Z" fill="#005499"/>
</svg>
