<svg width="58" height="56" viewBox="0 0 58 56" fill="none" xmlns="http://www.w3.org/2000/svg">
    <g clip-path="url(#clip0_101_463)">
        <path d="M57.2688 33.0696C56.9264 32.1064 56.0295 31.4356 54.8695 31.2746C54.3225 31.1987 53.6962 31.2311 52.9549 31.373C51.6629 31.6206 50.7044 31.7148 50.0049 31.7331C52.6453 27.5925 54.7923 22.8707 56.0283 18.426C58.027 11.239 56.959 7.96481 55.7109 6.48385C52.408 2.56391 47.589 0.458084 41.7755 0.39365C38.6742 0.358428 35.9516 0.927151 34.5313 1.33613C33.209 1.11942 31.7872 0.998423 30.2953 0.976047C27.4987 0.93461 25.0278 1.50085 22.9165 2.6646C21.7476 2.29747 19.8716 1.77992 17.7052 1.44967C12.6098 0.672728 8.50318 1.27812 5.49935 3.24907C1.86202 5.63543 0.175851 9.78162 0.487699 15.5724C0.586741 17.411 1.69405 23.005 3.43754 28.3102C4.43956 31.3595 5.50805 33.8917 6.61335 35.8372C8.18085 38.5959 9.85809 40.2204 11.741 40.8038C12.7963 41.1304 14.7138 41.3591 16.7306 39.799C16.9862 40.0866 17.3273 40.3723 17.7799 40.6377C18.3547 40.9744 19.0576 41.2495 19.7596 41.4126C22.2894 41.9999 24.6591 41.853 26.6807 41.0297C26.6932 41.3637 26.7028 41.6827 26.7108 41.9583C26.7242 42.4052 26.7376 42.8434 26.7552 43.2532C26.875 46.0241 27.078 48.1786 27.6794 49.6861C27.7124 49.7689 27.7568 49.8953 27.8036 50.0294C28.1037 50.8826 28.6053 52.3109 29.8817 53.4295C31.2034 54.5883 32.8021 54.9436 34.2663 54.9436C35.0007 54.9436 35.7013 54.8541 36.3159 54.7319C38.5064 54.2957 40.9943 53.6315 42.794 51.2514C44.4955 49.0013 45.3227 45.6124 45.4724 40.2726C45.4918 40.1216 45.5096 39.9774 45.5268 39.84L45.5625 39.5578L45.9633 39.5906L46.0666 39.597C48.2977 39.6915 51.0258 39.252 52.7013 38.5292C54.0252 37.9586 58.2677 35.8782 57.2688 33.0696Z" fill="#005799" />
        <path d="M53.4535 33.6158C46.8195 34.8869 46.3633 32.8007 46.3633 32.8007C53.3677 23.1474 56.2959 10.8938 53.7692 7.89481C46.8755 -0.285891 34.9425 3.58308 34.7433 3.68336L34.6793 3.69413C33.3686 3.44137 31.9019 3.29095 30.2532 3.26588C27.2516 3.2203 24.9745 3.99683 23.2466 5.21384C23.2466 5.21384 1.95932 -2.93144 2.94952 15.4579C3.1601 19.37 8.98662 45.0591 15.9361 37.2998C18.4761 34.4624 20.9305 32.0634 20.9305 32.0634C22.1494 32.8155 23.6087 33.1992 25.1385 33.0614L25.2574 32.9677C25.2203 33.3199 25.2373 33.6645 25.3049 34.0724C23.5146 35.9303 24.0408 36.2564 20.4619 36.9407C16.8404 37.634 18.9678 38.868 20.3568 39.1907C22.0407 39.5817 25.9364 40.1357 28.5686 36.7132L28.4637 37.1038C29.1651 37.6257 29.6576 40.4981 29.5751 43.1022C29.4925 45.7061 29.4374 47.4939 29.99 48.8903C30.543 50.2868 31.0937 53.4287 35.7987 52.4924C39.7298 51.7099 41.767 49.6822 42.0506 46.2997C42.2515 43.8951 42.7068 44.2506 42.7354 42.1007L43.1005 41.083C43.5215 37.8233 43.1675 36.7717 45.5893 37.2608L46.1782 37.3089C47.9605 37.3841 50.2938 37.0424 51.6632 36.4513C54.6117 35.1805 56.3606 33.0583 53.4531 33.6158H53.4535Z" fill="#336791" />
        <path d="M24.4935 17.2074C23.8957 17.1301 23.3543 17.2016 23.0804 17.3943C22.9264 17.5026 22.8787 17.6282 22.8658 17.7146C22.8314 17.9435 23.0041 18.1967 23.1103 18.3272C23.4105 18.6968 23.8491 18.9508 24.2831 19.0068C24.3461 19.0151 24.4087 19.0188 24.471 19.0188C25.1948 19.0188 25.8531 18.4952 25.9111 18.1088C25.9836 17.6249 25.2272 17.3023 24.4935 17.2076V17.2074ZM44.2983 17.2227C44.2412 16.8434 43.5145 16.7352 42.8247 16.8243C42.1359 16.9134 41.468 17.2022 41.5238 17.5824C41.5684 17.878 42.1433 18.3827 42.8236 18.3827C42.8812 18.3827 42.9392 18.3792 42.9976 18.3716C43.4518 18.3131 43.785 18.0452 43.9434 17.8909C44.1843 17.6555 44.324 17.3932 44.2983 17.2227Z" fill="white" />
        <path d="M55.6609 33.4715C55.4079 32.761 54.5937 32.5325 53.241 32.7919C49.2247 33.5618 47.7864 33.0285 47.3141 32.7055C50.436 28.2883 53.0041 22.9487 54.3896 17.967C55.0459 15.6071 55.4084 13.4155 55.438 11.6292C55.4708 9.66859 55.1112 8.22782 54.3698 7.3477C51.3802 3.79965 46.9925 1.89645 41.6812 1.84424C38.0299 1.80611 34.9448 2.67401 34.3468 2.91808C33.0873 2.62719 31.7144 2.44859 30.2196 2.4258C27.4785 2.38457 25.1091 2.99411 23.1475 4.2366C22.2953 3.94199 20.0932 3.23983 17.4001 2.83686C12.7443 2.14072 9.04446 2.66821 6.40423 4.40546C3.25385 6.47855 1.79945 10.1843 2.08119 15.4194C2.17599 17.1807 3.25653 22.599 4.96166 27.788C7.20616 34.6176 9.64607 38.4839 12.2131 39.2793C12.5136 39.3723 12.86 39.4374 13.2421 39.4374C14.1786 39.4374 15.3267 39.0454 16.5212 37.7115C17.9782 36.0881 19.4854 34.5042 21.0408 32.9616C22.05 33.4646 23.1586 33.7456 24.2925 33.7738C24.2947 33.8013 24.2976 33.8289 24.3003 33.8562C24.1051 34.0724 23.914 34.2917 23.727 34.514C22.9413 35.4404 22.7778 35.6332 20.2489 36.1168C19.5295 36.2548 17.619 36.6205 17.5908 37.8644C17.5605 39.2236 19.8494 39.7944 20.1102 39.8549C21.0189 40.0662 21.8945 40.1704 22.7294 40.1704C24.76 40.1704 26.547 39.5505 27.9751 38.3511C27.9311 43.1963 28.1486 47.9707 28.775 49.4254C29.2881 50.6163 30.5413 53.5266 34.4998 53.5264C35.0807 53.5264 35.72 53.4636 36.4233 53.3235C40.5548 52.501 42.3489 50.805 43.0428 47.0659C43.4142 45.0676 44.0516 40.2959 44.3514 37.7364C44.984 37.9197 45.7984 38.0037 46.6788 38.0034C48.5151 38.0034 50.6341 37.6411 51.9629 37.0682C53.4556 36.4243 56.1494 34.8443 55.6609 33.4715ZM45.8223 16.1756C45.8087 16.9313 45.6967 17.6172 45.578 18.3333C45.4502 19.1034 45.3181 19.8996 45.2849 20.8661C45.2521 21.8067 45.3786 22.7847 45.5008 23.7305C45.748 25.6407 46.0016 27.6073 45.0199 29.5478C44.8568 29.2794 44.7116 29.002 44.5849 28.7172C44.4629 28.4425 44.1979 28.0012 43.8309 27.3904C42.4035 25.0127 39.0609 19.4448 40.772 17.1728C41.2817 16.4966 42.5753 15.8013 45.8223 16.1756ZM41.8865 3.3743C46.6454 3.47188 50.4099 5.12543 53.0751 8.28873C55.1193 10.7151 52.8683 21.7554 46.3518 31.2799C46.2863 31.2025 46.2204 31.1253 46.1542 31.0484L46.0717 30.9527C47.7556 28.3697 47.4263 25.8141 47.1332 23.5483C47.0128 22.6185 46.899 21.7402 46.928 20.9152C46.9579 20.0409 47.0824 19.2909 47.2028 18.5657C47.3507 17.6721 47.5013 16.7475 47.4598 15.6575C47.4908 15.5431 47.5033 15.408 47.487 15.2477C47.3811 14.2024 46.0962 11.0741 43.4774 8.24274C42.0448 6.69403 39.9558 4.96092 37.1035 3.79198C38.3303 3.55579 40.008 3.33555 41.8865 3.3743ZM15.2571 36.7353C13.941 38.205 13.0322 37.9233 12.7333 37.8309C10.7859 37.2275 8.52627 33.4046 6.53406 27.3423C4.81019 22.0968 3.80282 16.8221 3.72296 15.343C3.47134 10.6651 4.69219 7.40509 7.35182 5.65313C11.6802 2.80226 18.7965 4.50864 21.656 5.37405C21.615 5.41176 21.5722 5.44698 21.5316 5.48531C16.8391 9.88675 16.9504 17.4067 16.962 17.8665C16.9616 18.0438 16.9776 18.2949 16.9995 18.6403C17.0802 19.9052 17.2306 22.2592 16.8291 24.9251C16.4561 27.4024 17.2783 29.8271 19.0845 31.5776C19.2699 31.7569 19.4647 31.9276 19.6683 32.0889C18.8643 32.8887 17.1171 34.6572 15.2571 36.7353ZM20.2714 30.5212C18.8157 29.1102 18.1545 27.1478 18.4572 25.1364C18.8811 22.3203 18.7247 19.8677 18.6406 18.55C18.6288 18.3656 18.6183 18.204 18.6123 18.0766C19.2978 17.512 22.4745 15.9312 24.7399 16.4133C25.7736 16.6331 26.4036 17.287 26.6655 18.4116C28.0208 24.2341 26.8448 26.6609 25.8999 28.6111C25.7051 29.0128 25.5211 29.3926 25.3641 29.7854L25.2423 30.0892C24.934 30.857 24.6471 31.571 24.4694 32.2489C22.9217 32.2447 21.4162 31.6308 20.2714 30.5212ZM20.509 38.3735C20.0571 38.2686 19.6507 38.0865 19.4122 37.9355C19.6114 37.8485 19.9658 37.73 20.5806 37.6123C23.5557 37.0436 24.0152 36.642 25.0185 35.4588C25.2485 35.1874 25.5093 34.8799 25.8704 34.5053L25.8709 34.5049C26.4087 33.9455 26.6547 34.0404 27.1009 34.2124C27.4625 34.3512 27.8147 34.7722 27.9575 35.2354C28.025 35.4542 28.1009 35.8694 27.8526 36.1926C25.7567 38.9184 22.7024 38.8834 20.509 38.3735ZM36.0789 51.8306C32.4393 52.5549 31.1507 50.8301 30.3015 48.8583C29.7534 47.5853 29.4839 41.8451 29.6751 35.5058C29.6775 35.4215 29.6646 35.3401 29.6396 35.2634C29.6173 35.112 29.5833 34.9623 29.5379 34.8155C29.2537 33.8931 28.5611 33.1215 27.7302 32.8016C27.4 32.6746 26.7942 32.4416 26.0661 32.6146C26.2213 32.0203 26.4906 31.3493 26.7826 30.6227L26.905 30.3171C27.0429 29.9725 27.216 29.6155 27.3989 29.2376C28.3878 27.1973 29.742 24.4026 28.2722 18.089C27.7217 15.7242 25.8832 14.5693 23.0962 14.8376C21.4254 14.9982 19.8967 15.6243 19.1343 15.9834C18.9703 16.0605 18.8204 16.135 18.6803 16.2076C18.8931 13.8249 19.697 9.3721 22.7044 6.5548C24.5981 4.78129 27.1198 3.90531 30.1924 3.95255C36.2464 4.04454 40.1287 6.93022 42.3197 9.33502C44.2077 11.4071 45.23 13.4945 45.638 14.6203C42.5697 14.3305 40.4829 14.893 39.4251 16.2977C37.1238 19.3533 40.6841 25.2837 42.3953 28.134C42.7091 28.6563 42.9799 29.1077 43.0652 29.2996C43.6224 30.5539 44.3438 31.3913 44.8704 32.0025C45.0319 32.1898 45.1885 32.3715 45.3077 32.5302C44.3784 32.7791 42.7091 33.354 42.8613 36.2279C42.7386 37.6699 41.8662 44.4212 41.4229 46.8065C40.8378 49.9578 39.5893 51.1313 36.0789 51.8306ZM51.2707 35.6834C50.3204 36.093 48.7302 36.4002 47.2196 36.4663C45.551 36.5388 44.7016 36.2927 44.5017 36.1413C44.408 34.3503 45.1256 34.1633 45.8852 33.9652C46.0045 33.9341 46.121 33.9037 46.2334 33.8672C46.3032 33.92 46.3797 33.9724 46.4636 34.0238C47.8047 34.8459 50.1966 34.9346 53.5736 34.2872L53.6107 34.2803C53.1552 34.6758 52.3758 35.2066 51.2707 35.6834Z" fill="white" />
    </g>
    <defs>
        <clipPath id="clip0_101_463">
            <rect width="57.1053" height="54.7023" fill="white" transform="translate(0.384766 0.31665)" />
        </clipPath>
    </defs>
</svg>